<?xml version="1.0" encoding="utf-8"?>
<!-- Generator: Adobe Illustrator 25.4.1, SVG Export Plug-In . SVG Version: 6.00 Build 0)  -->
<svg version="1.1" id="Layer_1" xmlns="http://www.w3.org/2000/svg" xmlns:xlink="http://www.w3.org/1999/xlink" x="0px" y="0px"
	 viewBox="0 0 281.4 381.3" style="enable-background:new 0 0 281.4 381.3;" xml:space="preserve">
<style type="text/css">
	.st0{fill-rule:evenodd;clip-rule:evenodd;}
	.st1{fill-rule:evenodd;clip-rule:evenodd;fill:#FFFFFF;}
	.st2{fill-rule:evenodd;clip-rule:evenodd;fill:#013369;}
	.st3{fill-rule:evenodd;clip-rule:evenodd;fill:#D50A0A;}
	.st4{fill:#2A7EFF;stroke:#FFFFFF;stroke-width:0.5;stroke-miterlimit:10;}
</style>
<g>
	<path d="M28.5,363.9c-5.3,2.1-10.1,3.2-14.4,3.3L8.1,333c3.5-2.9,7.7-5.2,12.8-7.2c12.7-4.9,19.1,0,22,7.4
		C45.7,340.6,48.1,356.3,28.5,363.9z M23.5,333.9c-0.2,0.1-0.4,0.2-0.6,0.3l3.8,20.9c0.2,0,0.4-0.1,0.6-0.2
		c2.9-1.1,4.2-3.3,2.9-11.3c-0.4-2.5-1-5.2-1.8-7.3C27.3,333.2,25.8,333,23.5,333.9z"/>
	<path d="M52.6,319.6c-3.4,1.3-6.8,0.6-7.9-2.2c-1.3-3.3,1.8-7.1,5.6-8.5c3.4-1.3,6.8-0.6,7.9,2.2C59.4,314.3,56.4,318.1,52.6,319.6
		z M64.8,349.1l-13.2,5.1l-5.2-29l13.2-5.1L64.8,349.1z"/>
	<path d="M100.1,333.9c-3.9,3.1-8.8,5.7-14.1,7.7c-8.9,3.5-16.1,1.9-19-5.6c-3.7-9.6,0.4-19.5,10.6-23.4c1.7-0.7,3.3-1.2,4.4-1.3
		l-2.4-13.1l13.2-5.1L100.1,333.9z M82,318.1c-2.3,0.9-3.3,3.3-2.7,8c0.2,1.8,0.6,3.5,1.2,5.1c1,2.7,2.4,3.3,4.3,2.6
		c0.4-0.2,0.8-0.3,1.1-0.5l-2.8-15.5C82.8,317.8,82.4,317.9,82,318.1z"/>
	<path d="M134.2,322.3l-13.8,5.3l-6.6-37.1l13.8-5.3L134.2,322.3z"/>
	<path d="M191.5,300.1l-12.5,4.8l-4.5-9.7c-0.4-0.8-0.6-1.3-0.7-1.6c-0.4-1-0.6-1.8-0.9-2.8l-0.1,0c0.1,1.6,0.2,3.1,0.1,5l-0.8,11.7
		l-12.5,4.8l-13.6-25.8l12.9-5l4.3,11.8c0.5,1.5,1,3.1,1.4,4.9l0.1,0c-0.1-1.9-0.1-3.5-0.1-5.4l0.8-13.8l10.8-4.2l5.1,11.5l0.4,1.1
		c0.5,1.3,0.9,2.4,1.3,3.7l0.1,0c-0.2-1.8-0.4-3.3-0.4-5.3l0.1-13.5l11.7-4.5L191.5,300.1z"/>
	<path d="M203.6,261.1c-3.4,1.3-6.8,0.6-7.9-2.2c-1.3-3.3,1.8-7.1,5.6-8.5c3.4-1.3,6.8-0.6,7.9,2.2
		C210.5,255.9,207.4,259.6,203.6,261.1z M215.8,290.7l-13.2,5.1l-5.2-29l13.2-5.1L215.8,290.7z"/>
	<path d="M248.1,258.8l3.2,18.1l-13.2,5.1l-3.4-19c0-0.3-0.1-0.6-0.2-0.9c-0.5-1.3-1.4-1.6-3.1-1c-0.6,0.2-1.1,0.5-1.5,0.8l3.9,21.9
		l-13.2,5.1l-4.9-27.6c4.2-3.2,9.2-5.8,14.4-7.8c9.4-3.6,15.3-2.6,17.4,3C247.8,257.1,248,258,248.1,258.8z"/>
	<path d="M269.6,249.3l0.2,4.6l-10.1,3.9l-2.5-7.3c3.9-2.2,6.6-5.1,5.7-7.3c-0.5-1.2-1.8-1.6-4.3-0.6c-2.1,0.8-4.2,2.2-6.1,3.7
		l-4.2-6c3.3-3,7.1-5.2,11.6-6.9c8.3-3.2,14.7-2.3,16.5,2.4C278.3,241,274.9,245.5,269.6,249.3z M267.8,271.2
		c-3.4,1.3-7,0.3-8.2-2.9c-1.5-3.9,1.1-8.3,5.4-9.9c3.4-1.3,7-0.3,8.2,2.9C274.8,265.2,272.1,269.6,267.8,271.2z"/>
</g>
<path class="st0" d="M225.5,48.1c-8.3,6.3-25,14.6-45.8,9.4c-36.8-9-47.2-40.6-47.2-40.6S122,48.4,85.2,57.4
	c-21.2,5.2-37.5-3.2-46.2-9.3h-6.6v170.2c0,4.5,1,12.9,8,21.5c8.6,10.4,23.2,17.1,43.4,20c16.3,2.3,28.1,7.4,36.5,15.5
	c6.3,5.9,12.2,16.2,12.2,16.2s6.1-10.5,12-16.2c8.4-8.1,20.3-13.1,36.5-15.5c20.2-2.9,34.7-9.7,43.4-20.2c7-8.5,8-17,8-21.3V48.2
	h-6.6"/>
<path class="st1" d="M222.7,41.1c-8.3,6.3-25,14.6-45.8,9.4c-36.8-9-47.2-40.6-47.2-40.6s-10.5,31.6-47.2,40.6
	c-21.2,5.2-37.5-3.2-46.2-9.3h-6.6v170.2c0,4.5,1,12.9,8,21.5c8.6,10.4,23.2,17.1,43.4,20c16.3,2.3,28.1,7.4,36.5,15.5
	c6.3,5.9,12.2,16.2,12.2,16.2s6.1-10.5,12-16.2c8.4-8.1,20.3-13.1,36.5-15.5c20.2-2.9,34.7-9.7,43.4-20.2c7-8.5,8-17,8-21.3V41.2
	h-6.6"/>
<path class="st2" d="M223.4,47.7c0,0-20,15.6-48.3,8.5c-32.9-8.2-45.8-32.9-45.8-32.9S116.4,48,83.4,56.2
	c-27.8,6.9-47.9-8.7-47.9-8.7v163.6c0,5.6,2.3,29.2,46.5,35.4c17.4,2.5,30.4,8.1,39.6,17.1c3.4,3.2,5.9,6.5,7.9,9.5
	c2-3,4.5-6.3,7.9-9.5c9.3-9,22.3-14.6,39.6-17.1c44.1-6.4,46.2-30,46.5-35.4V47.5"/>
<path class="st1" d="M129.6,256.9c0,0,12.8-15.8,45.8-20.9c38.2-5.9,36.8-23.7,36.8-24.6v-85.8H46.6v85.8c0,0.9-1.1,18.8,36.8,24.6
	c33.2,5.1,45.8,20.9,45.8,20.9"/>
<path class="st3" d="M90.7,188.3l0-40.6l-5.1-2.9v-10.6h23.3v10.6l-4.9,2.9v83L91.6,227l-18-53.1l0,35.1l5.7,4.4v10.8l-25-6.4v-9.2
	l5.7-2.2v-58.7l-5.9-2.9v-10.6h18.9L90.7,188.3 M133.7,225.5l5,6V242l-24.8-9.2v-9l5.5-2.2v-74l-5.4-2.7v-10.7h43.1v21.5h-9.4
	l-2.9-8.8h-10.9v24.9h8.2l3.2-4.7h6.6v22.1h-6.6l-3.1-4.5h-8.3v41 M161.2,229.3v-10.6l6.1-5v-66l-5.2-2.7v-10.7h24.8V145l-4.9,2.7
	v62.2l10.7-2.9l2-16.3h10.2v27.2l-43.8,11.7"/>
<path class="st1" d="M50.9,108.1l-7.5-5.6h9.2l3-8.7l3,8.7h9.2l-7.5,5.7l2.8,8.8l-7.5-5.2l-7.5,5.2L50.9,108.1 M83.4,108.1l-7.5-5.6
	H85l3-8.7l3,8.7h9.2l-7.5,5.7l2.8,8.8l-7.5-5.2l-7.5,5.2L83.4,108.1 M50.9,78.9l-7.5-5.6h9.2l3-8.7l3,8.7h9.2l-7.5,5.7l2.8,8.8
	l-7.5-5.2l-7.5,5.2L50.9,78.9 M83.4,78.9l-7.5-5.6H85l3-8.7l3,8.7h9.2l-7.5,5.7l2.8,8.8L88,82.5l-7.5,5.2L83.4,78.9 M210.9,116.8
	l-7.5-5.2l-7.5,5.2l2.8-8.8l-7.5-5.7h9.2l3-8.7l3,8.7h9.2l-7.5,5.7L210.9,116.8 M178.2,116.8l-7.5-5.2l-7.5,5.2l2.8-8.8l-7.5-5.7
	h9.2l3-8.7l3,8.7h9.2l-7.5,5.7L178.2,116.8 M210.9,87.6l-7.5-5.2l-7.5,5.2l2.8-8.8l-7.5-5.7h9.2l3-8.7l3,8.7h9.2l-7.5,5.7
	L210.9,87.6 M178.2,87.6l-7.5-5.2l-7.5,5.2l2.8-8.8l-7.5-5.7h9.2l3-8.7l3,8.7h9.2l-7.5,5.7L178.2,87.6 M136.5,72.3
	c-3.3-2.8-7.1-4.5-11-5.4c1-0.9,1.9-1.7,2.8-2.4c5,1.2,8.3,3.4,10.6,5.3C138.1,70.7,137.3,71.5,136.5,72.3L136.5,72.3L136.5,72.3z
	 M131.7,78.1c-3.2-2.7-7.1-4.7-11.4-5.6c0.7-0.9,1.5-1.8,2.2-2.6c3.3,0.6,7.6,2.4,11.4,5.5C133.1,76.3,132.4,77.2,131.7,78.1
	L131.7,78.1L131.7,78.1z M127.4,84.2c-3.4-2.9-7.4-4.6-11.4-5.3c0,0,1.2-2,1.9-3c4.8,1,8.7,3.2,11.4,5.5
	C128.6,82.3,127.9,83.3,127.4,84.2L127.4,84.2L127.4,84.2z M150,55.2c0,0-3.9,2-9.3,7.4c1.2,0.7,2.6,1.7,3.4,2.3
	c-0.8,0.7-1.7,1.5-2.4,2.2c-3.5-2.9-7.2-4.4-10-5.1c0.9-0.7,1.9-1.3,2.9-2c1.5,0.4,3,1,3,1c6.1-4.7,11.4-6.7,11.4-6.7
	s-0.6-0.3-2.3-0.3c-24.1,0.3-46.2,18.3-42,49c0.4,3.3,1.7,9.2,3.3,11.8c0.5-5.1,2.5-16.4,8.2-28.6c-2-0.7-3.6-1-3.6-1
	c0.6-1.2,1.4-2.8,1.4-2.8c4.2,0.8,8,2.6,11.2,5.1c-0.8,1.3-1.3,2.1-1.7,2.7c-1.1-0.9-2.3-1.7-3.5-2.4c-6.4,11.2-9.4,21.8-10.6,27.3
	c0.1,0.3,0.8,0.5,1.3,0.4c26.4-3.4,38.6-16.9,42.4-31.4c2.5-9.6,1.7-19.6-1.6-27.7C151.2,56,150.8,55.1,150,55.2"/>
<text transform="matrix(1 0 0 1 -260.2732 47.4039)" style="font-family:'MyriadPro-Regular'; font-size:12px;">Did I win?</text>
<text transform="matrix(1 0 0 1 -259.3612 78.2946)" style="font-family:'AktivGroteskCd-Black'; font-size:12px;">Did I win?</text>
<text transform="matrix(1 0 0 1 -259.361 104.087)" style="font-family:'ArdoiseStd-ExtraBoldItalic'; font-size:12px;">Did I win?</text>
<text transform="matrix(1 0 0 1 -238.106 158.4087)" style="font-family:'HalyardDisplay-BoldItalic'; font-size:12px;">Did I win?</text>
<text transform="matrix(1 0 0 1 -220.8479 192.2946)" style="font-family:'HalyardDisplay-BoldItalic'; font-size:12px;">Did I win?</text>
<text transform="matrix(1 0 0 1 -234.5638 222.881)" style="font-family:'NewberySansPro-ExtraBoldIt'; font-size:12px;">Did I win?</text>
<text transform="matrix(1 0 0 1 -221.1236 266.8035)" style="font-family:'NimbusSan-BlaIta'; font-size:12px;">Did I win?</text>
<text transform="matrix(1 0 0 1 -226.0949 294.9292)" style="font-family:'BioSans-ExtraBoldItalic'; font-size:12px;">Did I win?</text>
<text transform="matrix(1 0 0 1 -222.493 318.6153)" style="font-family:'DaxPro-WideBlackItalic'; font-size:12px;">Did I win?</text>
<text transform="matrix(0.9326 -0.361 0.361 0.9326 -440.5438 474.9658)" style="font-family:'DaxPro-WideBlackItalic'; font-size:53.7224px;">Did I win?</text>
<g>
	<path class="st4" d="M26.8,362c-5.3,2.1-10.1,3.2-14.4,3.3l-6.1-34.2c3.5-2.9,7.7-5.2,12.8-7.2c12.7-4.9,19.1,0,22,7.4
		C43.9,338.8,46.3,354.5,26.8,362z M21.7,332.1c-0.2,0.1-0.4,0.2-0.6,0.3l3.8,20.9c0.2,0,0.4-0.1,0.6-0.2c2.9-1.1,4.2-3.3,2.9-11.3
		c-0.4-2.5-1-5.2-1.8-7.3C25.5,331.4,24,331.2,21.7,332.1z"/>
	<path class="st4" d="M50.8,317.8c-3.4,1.3-6.8,0.6-7.9-2.2c-1.3-3.3,1.8-7.1,5.6-8.5c3.4-1.3,6.8-0.6,7.9,2.2
		C57.7,312.5,54.6,316.3,50.8,317.8z M63,347.3l-13.2,5.1l-5.2-29l13.2-5.1L63,347.3z"/>
	<path class="st4" d="M98.4,332.1c-3.9,3.1-8.8,5.7-14.1,7.7c-8.9,3.5-16.1,1.9-19-5.6c-3.7-9.6,0.4-19.5,10.6-23.4
		c1.7-0.7,3.3-1.2,4.4-1.3l-2.4-13.1l13.2-5.1L98.4,332.1z M80.2,316.3c-2.3,0.9-3.3,3.3-2.7,8c0.2,1.8,0.6,3.5,1.2,5.1
		c1,2.7,2.4,3.3,4.3,2.6c0.4-0.2,0.8-0.3,1.1-0.5L81.4,316C81.1,316,80.7,316.1,80.2,316.3z"/>
	<path class="st4" d="M132.4,320.5l-13.8,5.3l-6.6-37.1l13.8-5.3L132.4,320.5z"/>
	<path class="st4" d="M189.8,298.3l-12.5,4.8l-4.5-9.7c-0.4-0.8-0.6-1.3-0.7-1.6c-0.4-1-0.6-1.8-0.9-2.8l-0.1,0
		c0.1,1.6,0.2,3.1,0.1,5l-0.8,11.7l-12.5,4.8l-13.6-25.8l12.9-5l4.3,11.8c0.5,1.5,1,3.1,1.4,4.9l0.1,0c-0.1-1.9-0.1-3.5-0.1-5.4
		l0.8-13.8l10.8-4.2l5.1,11.5l0.4,1.1c0.5,1.3,0.9,2.4,1.3,3.7l0.1,0c-0.2-1.8-0.4-3.3-0.4-5.3l0.1-13.5l11.7-4.5L189.8,298.3z"/>
	<path class="st4" d="M201.9,259.3c-3.4,1.3-6.8,0.6-7.9-2.2c-1.3-3.3,1.8-7.1,5.6-8.5c3.4-1.3,6.8-0.6,7.9,2.2
		C208.7,254,205.7,257.8,201.9,259.3z M214.1,288.8l-13.2,5.1l-5.2-29l13.2-5.1L214.1,288.8z"/>
	<path class="st4" d="M246.4,257l3.2,18.1l-13.2,5.1l-3.4-19c0-0.3-0.1-0.6-0.2-0.9c-0.5-1.3-1.4-1.6-3.1-1
		c-0.6,0.2-1.1,0.5-1.5,0.8l3.9,21.9l-13.2,5.1l-4.9-27.6c4.2-3.2,9.2-5.8,14.4-7.8c9.4-3.6,15.3-2.6,17.4,3
		C246,255.3,246.2,256.1,246.4,257z"/>
	<path class="st4" d="M267.9,247.5l0.2,4.6l-10.1,3.9l-2.5-7.3c3.9-2.2,6.6-5.1,5.7-7.3c-0.5-1.2-1.8-1.6-4.3-0.6
		c-2.1,0.8-4.2,2.2-6.1,3.7l-4.2-6c3.3-3,7.1-5.2,11.6-6.9c8.3-3.2,14.7-2.3,16.5,2.4C276.6,239.2,273.1,243.7,267.9,247.5z
		 M266,269.4c-3.4,1.3-7,0.3-8.2-2.9c-1.5-3.9,1.1-8.3,5.4-9.9c3.4-1.3,7-0.3,8.2,2.9C273,263.4,270.4,267.7,266,269.4z"/>
</g>
</svg>
